#define ab904103e16b491dcb3f5762e9da921dUoogbVx5aFtGflMK_width 48
#define ab904103e16b491dcb3f5762e9da921dUoogbVx5aFtGflMK_height 48
static char ab904103e16b491dcb3f5762e9da921dUoogbVx5aFtGflMK_bits[] = {
  0x00, 0x00, 0x00, 0x00, 0x00, 0x00, 0x00, 0x00, 0x00, 0x00, 0x00, 0x00, 
  0x00, 0x00, 0x00, 0x00, 0x00, 0x00, 0x00, 0x00, 0xC0, 0x03, 0x00, 0x00, 
  0x00, 0x00, 0xF0, 0x0F, 0x00, 0x00, 0x00, 0x00, 0x38, 0x1C, 0x00, 0x00, 
  0x00, 0x00, 0x1C, 0x38, 0x00, 0x00, 0x00, 0x00, 0x0E, 0x70, 0x00, 0x00, 
  0x00, 0x00, 0x07, 0xE0, 0x00, 0x00, 0x00, 0x80, 0x03, 0xC0, 0x00, 0x00, 
  0x00, 0xFE, 0x0F, 0xE0, 0x3F, 0x00, 0x00, 0xFF, 0x7F, 0xBC, 0xFD, 0x00, 
  0xC0, 0x83, 0x78, 0x8E, 0xC3, 0x03, 0xC0, 0x80, 0xC1, 0x8F, 0x03, 0x03, 
  0xC0, 0x80, 0x30, 0x3E, 0x03, 0x07, 0x60, 0xC0, 0x0A, 0x78, 0x03, 0x06, 
  0x60, 0x40, 0x02, 0xE0, 0x07, 0x06, 0x60, 0xC0, 0x01, 0xC0, 0x07, 0x06, 
  0x60, 0x20, 0x00, 0x00, 0x0F, 0x06, 0x60, 0x50, 0x00, 0x00, 0x0F, 0x03, 
  0xC0, 0x38, 0x00, 0x01, 0x1F, 0x03, 0xC0, 0x4C, 0x40, 0x04, 0xBE, 0x03, 
  0x80, 0x67, 0x40, 0x01, 0xF6, 0x01, 0x80, 0x03, 0x90, 0x06, 0xE6, 0x01, 
  0x80, 0x23, 0x90, 0x09, 0xE6, 0x01, 0x80, 0x47, 0x20, 0x06, 0xF6, 0x01, 
  0xC0, 0x4C, 0xC0, 0x05, 0xBE, 0x03, 0xC0, 0x38, 0x00, 0x02, 0x1E, 0x03, 
  0xC0, 0x70, 0x00, 0x00, 0x0F, 0x06, 0x60, 0x40, 0x00, 0x00, 0x07, 0x06, 
  0x60, 0x80, 0x01, 0x80, 0x07, 0x06, 0x60, 0xC0, 0x02, 0xF0, 0x03, 0x06, 
  0x60, 0xC0, 0x12, 0xF8, 0x03, 0x06, 0xE0, 0x40, 0x18, 0x3E, 0x03, 0x07, 
  0xC0, 0x80, 0x20, 0x0F, 0x83, 0x03, 0xC0, 0x83, 0xF9, 0x9C, 0xC1, 0x01, 
  0x00, 0xFF, 0x7F, 0xF6, 0xFF, 0x00, 0x00, 0xFC, 0x1F, 0xC0, 0x3F, 0x00, 
  0x00, 0x00, 0x03, 0xC0, 0x00, 0x00, 0x00, 0x00, 0x06, 0xE0, 0x00, 0x00, 
  0x00, 0x00, 0x0E, 0x70, 0x00, 0x00, 0x00, 0x00, 0x1C, 0x38, 0x00, 0x00, 
  0x00, 0x00, 0x38, 0x1C, 0x00, 0x00, 0x00, 0x00, 0xF0, 0x0F, 0x00, 0x00, 
  0x00, 0x00, 0xC0, 0x03, 0x00, 0x00, 0x00, 0x00, 0x00, 0x00, 0x00, 0x00, 
  0x00, 0x00, 0x00, 0x00, 0x00, 0x00, 0x00, 0x00, 0x00, 0x00, 0x00, 0x00, 
  };
